<svg width="800" height="800" viewBox="0 0 800 800" fill="none" xmlns="http://www.w3.org/2000/svg">
  <rect width="800" height="800" rx="32" fill="#EEF4FB"/>
  <circle cx="400" cy="400" r="260" fill="#D6E3EF"/>
  <path d="M240 408C284 282 374 198 440 196C521 194 592 277 587 405C582 528 498 612 403 610C305 608 204 514 240 408Z" fill="#A4AEB5"/>
  <path d="M335 224L402 100L454 221L335 224Z" fill="#909AA2"/>
  <path d="M455 221L561 139L524 280L455 221Z" fill="#7E8891"/>
  <circle cx="471" cy="360" r="12" fill="#273038"/>
  <ellipse cx="418" cy="444" rx="44" ry="28" fill="#59636B"/>
  <path d="M360 512C394 541 442 543 476 512" stroke="#6D7881" stroke-width="18" stroke-linecap="round"/>
  <text x="80" y="94" fill="#314357" font-family="Arial, sans-serif" font-size="32" font-weight="700">Breed portrait</text>
</svg>
