<svg width="1000" height="700" viewBox="0 0 1000 700" fill="none" xmlns="http://www.w3.org/2000/svg">
  <rect width="1000" height="700" rx="32" fill="#F8F3EE"/>
  <rect y="468" width="1000" height="232" fill="#E5D8CC"/>
  <rect x="80" y="140" width="250" height="210" rx="24" fill="#D9E8F7"/>
  <rect x="728" y="112" width="170" height="280" rx="24" fill="#E8EEF5"/>
  <path d="M338 487C378 400 473 344 547 349C638 355 703 430 700 511C697 591 624 635 544 634C460 633 304 562 338 487Z" fill="#A8B1B8"/>
  <path d="M469 355L522 260L573 356L469 355Z" fill="#8C979F"/>
  <path d="M523 349L624 297L602 396L523 349Z" fill="#77828B"/>
  <circle cx="590" cy="449" r="10" fill="#263138"/>
  <ellipse cx="540" cy="506" rx="38" ry="24" fill="#5A646D"/>
  <circle cx="204" cy="462" r="44" fill="#D1B9A4"/>
  <circle cx="794" cy="450" r="40" fill="#C8D8E8"/>
  <text x="58" y="88" fill="#705A48" font-family="Arial, sans-serif" font-size="34" font-weight="700">Family dog</text>
</svg>