<svg width="1000" height="700" viewBox="0 0 1000 700" fill="none" xmlns="http://www.w3.org/2000/svg">
  <rect width="1000" height="700" rx="32" fill="#F6F1EA"/>
  <rect y="520" width="1000" height="180" fill="#E3D7C8"/>
  <path d="M280 482C324 375 424 311 505 322C593 334 665 412 652 508C640 605 556 644 470 629C372 612 244 568 280 482Z" fill="#A3ADB5"/>
  <path d="M447 330L500 230L553 323L447 330Z" fill="#8A959E"/>
  <path d="M505 322L608 261L580 370L505 322Z" fill="#78838D"/>
  <circle cx="575" cy="428" r="11" fill="#263138"/>
  <ellipse cx="524" cy="490" rx="38" ry="24" fill="#5A646D"/>
  <rect x="710" y="476" width="48" height="48" rx="8" fill="#49617A"/>
  <rect x="786" y="432" width="48" height="48" rx="8" fill="#9B8068"/>
  <rect x="838" y="512" width="48" height="48" rx="8" fill="#49617A"/>
  <text x="62" y="84" fill="#705A48" font-family="Arial, sans-serif" font-size="34" font-weight="700">Nose work</text>
</svg>
