<svg width="1000" height="700" viewBox="0 0 1000 700" fill="none" xmlns="http://www.w3.org/2000/svg">
  <rect width="1000" height="700" rx="32" fill="#F1F5FA"/>
  <rect y="520" width="1000" height="180" fill="#DCE6F1"/>
  <circle cx="750" cy="182" r="56" fill="#F9E3A4"/>
  <path d="M308 487C353 387 453 333 531 343C626 356 688 437 677 526C667 603 596 645 516 639C421 632 269 576 308 487Z" fill="#A7B1B8"/>
  <path d="M455 350L510 254L564 351L455 350Z" fill="#8C979F"/>
  <path d="M511 343L610 290L590 392L511 343Z" fill="#77828B"/>
  <circle cx="579" cy="447" r="10" fill="#263138"/>
  <ellipse cx="528" cy="504" rx="38" ry="24" fill="#5A646D"/>
  <circle cx="206" cy="320" r="64" fill="#D1B9A4"/>
  <rect x="154" y="383" width="108" height="180" rx="40" fill="#9B8068"/>
  <path d="M266 444L352 488" stroke="#9B8068" stroke-width="24" stroke-linecap="round"/>
  <text x="60" y="88" fill="#314357" font-family="Arial, sans-serif" font-size="34" font-weight="700">Rescue companion</text>
</svg>
