<svg width="1200" height="900" viewBox="0 0 1200 900" fill="none" xmlns="http://www.w3.org/2000/svg">
  <rect width="1200" height="900" rx="40" fill="#DCEAF7"/>
  <rect y="560" width="1200" height="340" fill="#C7D9E8"/>
  <circle cx="940" cy="170" r="88" fill="#F9E3A4"/>
  <path d="M120 610C250 520 410 472 560 500C670 520 810 520 940 450C1030 402 1094 355 1140 320V900H120V610Z" fill="#8FA7BA"/>
  <path d="M347 573C419 471 535 406 629 414C738 423 787 510 786 586C785 665 718 748 609 751C487 754 409 675 347 573Z" fill="#A2ABB2"/>
  <path d="M557 430L628 314L684 402L557 430Z" fill="#9098A0"/>
  <path d="M628 314L744 265L710 391L628 314Z" fill="#7E8891"/>
  <ellipse cx="645" cy="554" rx="34" ry="24" fill="#5B6670"/>
  <circle cx="706" cy="488" r="11" fill="#2A3138"/>
  <path d="M455 652C489 679 516 733 523 786" stroke="#69747E" stroke-width="28" stroke-linecap="round"/>
  <path d="M626 701C652 733 663 767 662 811" stroke="#69747E" stroke-width="28" stroke-linecap="round"/>
  <path d="M327 597C268 631 229 679 214 742" stroke="#69747E" stroke-width="28" stroke-linecap="round"/>
  <path d="M742 630C806 654 852 705 876 772" stroke="#69747E" stroke-width="28" stroke-linecap="round"/>
  <text x="72" y="120" fill="#314357" font-family="Arial, sans-serif" font-size="46" font-weight="700">WeimWisdom</text>
  <text x="72" y="178" fill="#314357" font-family="Arial, sans-serif" font-size="26">Silver-shadow energy, elegance, and heart.</text>
</svg>
